<?xml version="1.0" encoding="utf-8"?>
<!-- Generator: Adobe Illustrator 22.0.1, SVG Export Plug-In . SVG Version: 6.00 Build 0)  -->
<svg version="1.1" id="Layer_1" xmlns="http://www.w3.org/2000/svg" xmlns:xlink="http://www.w3.org/1999/xlink" x="0px" y="0px"
	 viewBox="0 0 50 50.5" enable-background="new 0 0 50 50.5" xml:space="preserve">
<path fill="#333333" d="M32.6,19.4c-3.3-1.2-6.8-1.2-10.4,0c-0.2,0.1-0.5-0.1-0.5-0.3c0-1,0-3.4,0-4.3c0-0.2,0.2-0.3,0.3-0.3h10.6
	c0.2,0,0.3,0.2,0.3,0.3c0,0.9,0,3.3,0,4.3C33,19.3,32.8,19.5,32.6,19.4z"/>
<path fill="#333333" d="M32.8,13C29.3,12,25.5,12,22,13c-0.2,0.1-0.3,0.3-0.2,0.4l0,0c0.1,0.2,0.3,0.3,0.4,0.2c3.4-1.1,7-1.1,10.4,0
	c0.2,0.1,0.4,0,0.4-0.2l0,0C33.1,13.3,33,13.1,32.8,13z"/>
<path fill="#333333" d="M19.2,25.2c-2.3-0.8-4.8-0.9-7.4,0c-0.2,0.1-0.3-0.1-0.3-0.2c0-0.7,0-2.4,0-3.1c0-0.1,0.1-0.2,0.2-0.2h7.5
	c0.1,0,0.2,0.1,0.2,0.2c0,0.6,0,2.3,0,3.1C19.5,25.1,19.4,25.2,19.2,25.2z"/>
<path fill="#333333" d="M19.3,20.7c-2.5-0.8-5.2-0.8-7.7,0c-0.1,0-0.2,0.2-0.2,0.3l0,0c0,0.1,0.2,0.2,0.3,0.2c2.4-0.7,5-0.7,7.4,0
	c0.1,0,0.3,0,0.3-0.2l0,0C19.6,20.9,19.5,20.7,19.3,20.7z"/>
<path fill="#333333" d="M35.2,21.9V25c0,0.2,0.2,0.3,0.3,0.2c2.3-0.8,4.8-0.9,7.4,0c0.2,0.1,0.3-0.1,0.3-0.2v-3.1
	c0-0.1-0.1-0.2-0.2-0.2h-7.5C35.3,21.7,35.2,21.8,35.2,21.9z"/>
<path fill="#333333" d="M35.4,20.7c2.5-0.8,5.2-0.8,7.7,0c0.1,0,0.2,0.2,0.2,0.3l0,0c0,0.1-0.2,0.2-0.3,0.2c-2.4-0.7-5-0.7-7.4,0
	c-0.1,0-0.3,0-0.3-0.2l0,0C35.2,20.9,35.3,20.7,35.4,20.7z"/>
<path fill="#333333" d="M29,26.9c-0.5-0.1-1.1-0.2-1.6-0.2c-0.6,0-1.1,0.1-1.6,0.2l0.5-6.4c0-0.6,0.5-1.1,1.2-1.1
	c0.3,0,0.6,0.1,0.8,0.3c0.2,0.2,0.3,0.5,0.4,0.8L29,26.9z"/>
<path fill="#333333" d="M39.6,26.5l-4.9,5.7h0.9c1.6,0,2.5,1.9,1.5,3.2L34.8,38c-3.9,4.6-11,4.6-14.9,0l-2.2-2.6
	c-1.1-1.3-0.2-3.2,1.5-3.2h0.9l-4.9-5.7C15.1,26.4,15,26.2,15,26c0-0.2,0.1-0.4,0.2-0.6c0.3-0.3,0.8-0.3,1.1,0l5.4,4.7
	c-0.4,0.6-0.7,1.3-0.9,2.1c-0.1,0.2-0.1,0.5-0.1,0.7c0,0.3,0,0.5,0,0.8c0,3.7,3,6.7,6.7,6.7c3.7,0,6.7-3,6.7-6.7c0-0.3,0-0.5,0-0.8
	c0-0.3-0.1-0.5-0.1-0.7c-0.2-0.7-0.5-1.4-0.9-2.1l5.4-4.7c0.3-0.3,0.8-0.3,1.1,0c0.2,0.2,0.2,0.4,0.2,0.6
	C39.7,26.2,39.7,26.4,39.6,26.5z"/>
<g>
	<path fill="#333333" d="M32.3,32.4h-0.8c-0.1-0.3-0.2-0.5-0.3-0.8l0.5-0.5c0.2-0.2,0.2-0.6,0-0.8l-1-1c-0.2-0.2-0.6-0.2-0.8,0
		l-0.5,0.5c-0.2-0.1-0.5-0.2-0.8-0.3v-0.8c0-0.3-0.3-0.6-0.6-0.6h-1.4c-0.3,0-0.6,0.3-0.6,0.6v0.8c-0.3,0.1-0.5,0.2-0.8,0.3
		l-0.5-0.5c-0.2-0.2-0.6-0.2-0.8,0l-1,1c-0.2,0.2-0.2,0.6,0,0.8l0.5,0.5c-0.1,0.2-0.2,0.5-0.3,0.8h-0.8c-0.3,0-0.6,0.3-0.6,0.6v1.4
		c0,0.3,0.3,0.6,0.6,0.6h0.8c0.1,0.3,0.2,0.5,0.3,0.8l-0.5,0.5c-0.2,0.2-0.2,0.6,0,0.8l1,1c0.2,0.2,0.6,0.2,0.8,0l0.5-0.5
		c0.2,0.1,0.5,0.2,0.8,0.3v0.8c0,0.3,0.3,0.6,0.6,0.6h1.4c0.3,0,0.6-0.3,0.6-0.6v-0.8c0.3-0.1,0.5-0.2,0.8-0.3l0.5,0.5
		c0.2,0.2,0.6,0.2,0.8,0l1-1c0.2-0.2,0.2-0.6,0-0.8l-0.5-0.5c0.1-0.2,0.2-0.5,0.3-0.8h0.8c0.3,0,0.6-0.3,0.6-0.6V33
		C32.9,32.7,32.7,32.4,32.3,32.4z M29.9,33.7c0,1.4-1.1,2.5-2.5,2.5c-1.4,0-2.5-1.1-2.5-2.5c0-1.4,1.1-2.5,2.5-2.5
		C28.7,31.2,29.9,32.3,29.9,33.7z"/>
</g>
<path fill="#15BFFF" d="M44.1,37.3l-0.2,0.2c-4.3,5-9.8,7.6-16.2,7.6c-5.9,0-10.8-1.9-14.6-5.7C9.2,35.7,7.3,31,7.3,25.4
	c0-3.7,0.9-7.1,2.6-10.1c1.7-3,4.2-5.4,7.3-7.1c3.1-1.8,6.6-2.7,10.2-2.7c3.4,0,6.5,0.7,9.3,2c2.8,1.3,5.2,3.3,7.2,6l0.2,0.3
	l4.2-3.2l-0.2-0.3c-2.3-3.2-5.2-5.6-8.8-7.4c-3.6-1.7-7.6-2.6-12-2.6C20,0.3,13.8,2.7,9,7.4C4.1,12.1,1.6,18,1.6,25
	c0,6.6,2,12.3,6.1,17c4.8,5.5,11.4,8.3,19.7,8.3c4.4,0,8.3-0.8,11.9-2.5c3.5-1.6,6.5-4,8.9-7l0.2-0.3L44.1,37.3z"/>
</svg>
