<?xml version="1.0" standalone="no"?>
<!DOCTYPE svg PUBLIC "-//W3C//DTD SVG 20010904//EN"
 "http://www.w3.org/TR/2001/REC-SVG-20010904/DTD/svg10.dtd">
<svg version="1.0" xmlns="http://www.w3.org/2000/svg"
 width="2048.000000pt" height="2048.000000pt" viewBox="0 0 2048.000000 2048.000000"
 preserveAspectRatio="xMidYMid meet">
<metadata>
Created by potrace 1.11, written by Peter Selinger 2001-2013
</metadata>
<g transform="translate(0.000000,2048.000000) scale(0.100000,-0.100000)"
fill="#000000" stroke="none">
<path d="M10027 19384 c-1 -1 -103 -5 -227 -9 -124 -4 -245 -8 -270 -10 -79
-5 -250 -17 -288 -20 -20 -2 -68 -6 -107 -9 -38 -4 -88 -8 -110 -11 -22 -2
-67 -7 -100 -10 -33 -3 -71 -8 -85 -10 -14 -2 -49 -7 -79 -10 -30 -4 -61 -8
-70 -10 -9 -1 -38 -6 -66 -9 -48 -6 -75 -10 -155 -22 -56 -8 -264 -44 -280
-49 -8 -2 -31 -6 -50 -9 -19 -3 -46 -8 -60 -11 -14 -3 -38 -8 -55 -11 -59 -10
-388 -85 -395 -89 -4 -2 -20 -7 -36 -10 -16 -3 -63 -14 -104 -25 -41 -12 -82
-22 -90 -25 -80 -20 -215 -58 -315 -89 -5 -2 -13 -4 -17 -5 -27 -6 -388 -132
-508 -177 -170 -64 -210 -81 -430 -177 -121 -53 -365 -167 -404 -188 -10 -6
-71 -38 -135 -71 -282 -147 -622 -352 -871 -524 -165 -114 -272 -190 -285
-201 -5 -5 -37 -29 -70 -53 -130 -97 -439 -350 -531 -435 -6 -5 -51 -46 -100
-90 -121 -109 -589 -577 -701 -700 -102 -113 -259 -295 -318 -370 -22 -27 -42
-52 -45 -55 -3 -3 -21 -25 -40 -50 -19 -25 -37 -47 -40 -50 -3 -3 -19 -23 -35
-45 -16 -22 -35 -47 -42 -55 -88 -111 -334 -468 -448 -651 -152 -246 -259
-440 -389 -704 -82 -167 -156 -323 -156 -330 0 -2 -13 -32 -29 -67 -54 -119
-151 -370 -222 -574 -114 -331 -257 -860 -304 -1129 -7 -43 -44 -246 -49 -270
-2 -11 -9 -56 -16 -100 -17 -117 -20 -137 -25 -165 -2 -14 -7 -52 -10 -85 -3
-33 -8 -67 -10 -75 -2 -8 -7 -51 -10 -94 -4 -43 -8 -86 -10 -95 -1 -9 -6 -56
-10 -106 -4 -49 -9 -108 -10 -130 -4 -47 -16 -238 -21 -345 -4 -92 -4 -802 0
-885 9 -175 17 -305 21 -345 2 -25 7 -88 11 -140 3 -52 8 -102 9 -111 2 -8 6
-47 10 -85 3 -38 8 -82 10 -99 2 -16 7 -59 10 -95 4 -36 9 -74 11 -85 2 -11 8
-54 14 -95 24 -184 51 -344 85 -515 8 -38 16 -81 19 -95 58 -321 214 -878 358
-1275 152 -423 387 -939 585 -1285 58 -101 134 -231 161 -275 17 -27 42 -67
54 -89 37 -63 38 -65 153 -235 61 -90 115 -171 120 -180 6 -9 12 -18 15 -21 3
-3 17 -21 30 -40 14 -19 28 -39 32 -45 5 -5 54 -71 110 -145 82 -110 269 -345
313 -394 6 -6 55 -63 110 -126 142 -162 196 -220 405 -429 185 -185 240 -237
379 -361 102 -90 96 -85 241 -205 973 -807 2171 -1400 3460 -1711 102 -25 196
-48 210 -51 14 -4 32 -8 40 -9 8 -1 94 -18 190 -37 149 -30 231 -45 403 -73
15 -2 39 -6 55 -8 15 -3 45 -7 67 -11 22 -3 54 -7 70 -9 17 -3 84 -11 150 -20
66 -8 145 -18 175 -21 30 -3 76 -7 103 -10 26 -3 68 -7 95 -10 26 -3 81 -7
122 -10 41 -3 107 -8 145 -11 203 -16 538 -27 870 -27 283 0 439 4 745 18 86
4 242 15 280 20 19 2 69 7 110 11 41 3 82 7 90 9 8 2 51 6 95 9 44 4 87 9 95
11 8 2 40 6 71 10 31 3 65 7 75 9 11 2 48 7 84 11 36 4 67 8 70 10 3 2 28 6
55 9 66 9 88 13 225 37 149 27 152 28 240 45 41 8 86 17 100 20 14 3 33 7 42
10 10 3 30 7 45 10 102 18 462 113 683 179 47 14 92 27 100 30 41 10 390 133
502 175 642 246 1301 580 1818 923 303 201 707 506 910 687 19 18 49 43 65 57
154 133 529 499 665 648 30 34 78 85 105 116 62 68 133 150 220 254 37 44 78
94 92 110 35 41 103 142 103 152 0 5 -46 42 -102 83 -57 41 -110 80 -118 87
-8 7 -170 128 -360 269 -190 141 -373 277 -407 303 -34 25 -72 54 -85 63 -13
9 -117 87 -233 174 -115 86 -223 165 -238 176 l-28 20 -47 -49 c-26 -28 -96
-106 -157 -174 -60 -68 -207 -221 -325 -339 -214 -214 -267 -265 -409 -390
-41 -36 -79 -70 -85 -75 -6 -6 -49 -42 -96 -80 -47 -38 -87 -72 -90 -75 -3 -4
-63 -51 -135 -106 -563 -432 -1171 -783 -1765 -1019 -52 -20 -104 -41 -115
-46 -186 -81 -711 -241 -995 -304 -8 -2 -35 -8 -60 -14 -47 -10 -60 -13 -150
-30 -30 -6 -66 -13 -80 -16 -30 -6 -68 -13 -112 -20 -18 -3 -40 -8 -48 -10 -8
-2 -40 -7 -70 -10 -30 -4 -57 -8 -60 -10 -3 -2 -34 -6 -70 -10 -36 -4 -73 -9
-82 -10 -9 -2 -48 -7 -85 -10 -37 -4 -77 -9 -88 -11 -11 -2 -56 -7 -100 -10
-44 -3 -93 -7 -110 -9 -215 -27 -1078 -27 -1365 0 -19 1 -73 6 -120 10 -47 3
-98 8 -115 10 -16 2 -57 6 -90 9 -33 4 -71 9 -85 11 -14 3 -46 7 -72 10 -68 7
-263 36 -343 50 -152 28 -221 42 -355 72 -85 19 -162 36 -170 38 -264 57 -869
259 -1120 373 -25 11 -106 48 -180 82 -195 89 -404 199 -605 318 -100 59 -383
239 -395 252 -3 3 -34 25 -70 50 -36 24 -69 48 -75 53 -5 4 -66 51 -135 103
-174 132 -321 255 -494 414 -114 105 -543 535 -612 614 -38 44 -76 87 -84 96
-83 91 -279 339 -394 500 -191 267 -351 531 -501 825 -96 190 -156 321 -235
515 -66 163 -177 482 -203 585 -3 11 -17 58 -31 105 -14 47 -28 96 -31 110 -3
14 -21 90 -40 170 -19 80 -38 159 -40 175 -3 17 -12 62 -20 102 -8 39 -17 89
-21 110 -3 21 -7 45 -9 53 -2 8 -7 35 -10 60 -3 25 -10 70 -15 100 -5 30 -12
78 -15 105 -4 28 -8 62 -11 78 -2 15 -7 51 -9 80 -3 28 -7 70 -10 92 -2 22 -7
76 -11 120 -3 44 -7 96 -9 115 -32 351 -22 1073 20 1430 2 19 7 62 10 95 3 33
7 71 10 85 2 14 7 45 10 70 8 57 43 288 49 316 2 12 7 39 10 59 13 77 78 364
116 510 208 796 537 1526 988 2193 82 122 102 149 205 286 261 345 636 741
967 1021 52 44 97 83 100 86 7 7 223 175 280 217 25 18 65 48 90 66 118 86
293 200 500 324 168 101 220 131 300 175 25 14 61 34 80 46 82 48 527 265 670
325 192 81 466 182 625 230 66 21 138 43 160 51 44 15 322 88 400 106 28 6 59
13 70 15 11 3 31 7 45 10 14 2 55 11 92 19 36 8 83 17 103 21 21 3 47 8 59 10
11 2 37 7 56 10 19 3 72 12 117 19 45 8 103 17 130 20 27 3 58 7 69 9 10 2 48
7 84 11 36 3 76 8 90 10 14 2 59 7 100 10 41 3 100 8 130 11 318 25 938 25
1245 -1 28 -3 75 -7 105 -10 30 -2 82 -7 115 -10 33 -3 76 -7 95 -10 130 -17
210 -27 245 -31 22 -3 47 -7 55 -9 8 -3 36 -7 62 -10 25 -3 57 -8 69 -10 13
-3 49 -9 79 -15 30 -6 65 -12 76 -14 12 -2 37 -7 55 -10 35 -6 65 -12 109 -21
14 -3 36 -7 50 -10 24 -5 167 -38 220 -52 14 -3 32 -8 40 -9 57 -12 371 -103
495 -144 231 -75 526 -185 660 -245 17 -8 82 -37 145 -65 144 -65 450 -218
470 -236 8 -7 20 -14 25 -15 6 -1 19 -7 30 -14 11 -6 83 -49 160 -95 219 -130
607 -401 747 -522 14 -13 61 -52 104 -88 43 -36 86 -72 94 -80 9 -8 56 -51
105 -95 187 -170 419 -409 607 -626 137 -159 337 -414 398 -507 18 -29 37 -52
42 -52 5 0 75 50 156 112 157 120 672 512 837 638 55 42 156 119 225 171 69
51 127 96 130 99 3 3 46 36 97 74 l91 69 -26 41 c-115 177 -432 580 -602 766
-303 331 -533 557 -790 777 -498 426 -1004 771 -1610 1098 -639 346 -1556 677
-2325 841 -104 22 -207 43 -235 48 -14 2 -59 11 -100 19 -41 9 -93 18 -115 22
-23 3 -52 8 -65 10 -38 8 -241 38 -335 50 -22 3 -49 7 -61 9 -11 2 -53 7 -93
11 -40 3 -82 8 -94 11 -21 4 -66 8 -192 19 -33 3 -80 8 -105 10 -25 3 -88 7
-140 11 -52 3 -122 7 -155 9 -147 10 -791 25 -798 19z"/>
<path d="M10117 15014 c-1 -1 -83 -5 -182 -9 -99 -3 -196 -8 -215 -10 -19 -1
-73 -6 -120 -10 -47 -3 -101 -8 -120 -10 -19 -2 -60 -7 -90 -10 -56 -6 -83
-10 -155 -20 -22 -3 -71 -10 -108 -15 -197 -28 -441 -78 -687 -141 -216 -55
-257 -76 -274 -141 -7 -30 -5 -41 17 -72 14 -21 35 -45 47 -53 26 -19 70 -25
85 -13 5 4 26 12 45 18 19 6 80 24 135 40 90 28 206 59 245 67 8 2 53 12 100
24 47 11 112 25 145 32 33 7 62 13 65 14 3 0 28 5 55 10 28 5 52 9 55 10 3 0
27 4 53 9 27 4 57 9 66 11 10 2 42 6 71 10 29 4 60 8 69 10 15 3 60 8 184 20
28 3 70 8 92 10 226 24 858 25 1050 1 17 -2 59 -7 95 -10 144 -14 159 -16 255
-31 17 -3 48 -7 70 -10 37 -5 118 -19 175 -30 14 -3 50 -10 80 -16 30 -6 60
-12 65 -13 6 -2 28 -6 50 -11 68 -13 377 -93 429 -110 26 -9 56 -18 66 -20 10
-2 40 -11 66 -20 110 -37 154 -23 178 59 13 45 13 54 -1 83 -24 51 -57 68
-203 107 -121 31 -406 96 -485 110 -16 3 -57 11 -90 16 -33 6 -71 13 -85 16
-62 10 -302 43 -365 49 -38 4 -77 9 -86 10 -14 3 -108 11 -234 20 -115 9 -603
24 -608 19z"/>
<path d="M8193 14170 c-17 -10 -37 -29 -44 -41 -9 -17 -12 -219 -11 -818 0
-438 1 -807 1 -820 1 -31 59 -87 104 -99 31 -9 52 -5 144 24 292 94 608 172
878 219 50 8 101 17 114 20 13 2 49 7 80 10 31 4 63 8 72 11 9 2 40 6 70 9 30
2 75 7 100 10 235 31 792 37 1023 10 17 -2 58 -6 91 -9 33 -4 76 -8 95 -11 19
-3 55 -7 80 -10 25 -3 56 -8 70 -10 14 -3 43 -7 65 -10 49 -6 58 -8 265 -50
187 -39 453 -112 644 -178 108 -38 133 -43 158 -35 32 11 58 53 51 83 -3 11
-6 382 -7 825 -1 606 -5 810 -14 827 -6 12 -24 31 -38 42 l-27 21 -1966 0
c-1929 0 -1967 0 -1998 -20z"/>
<path d="M10148 12384 c-146 -34 -258 -129 -305 -258 -20 -55 -20 -56 -28
-179 -4 -60 -8 -128 -10 -150 -2 -23 -7 -76 -10 -117 -3 -41 -8 -95 -10 -120
-2 -25 -7 -85 -10 -135 -4 -49 -8 -106 -10 -125 -2 -19 -6 -78 -10 -130 -3
-52 -8 -111 -10 -130 -2 -19 -6 -73 -10 -120 -3 -47 -8 -111 -10 -142 -9 -108
-14 -173 -20 -253 -3 -44 -8 -100 -10 -125 -3 -25 -7 -76 -10 -115 -2 -38 -7
-101 -10 -140 -3 -38 -8 -98 -10 -132 -20 -259 -26 -327 -31 -332 -2 -2 1 -10
6 -16 8 -10 22 -9 66 1 31 7 77 15 102 19 26 3 54 8 62 10 139 37 487 37 705
-1 22 -4 47 -8 55 -9 8 -1 29 -5 45 -8 17 -4 46 -9 65 -12 19 -3 43 -8 53 -11
16 -5 17 3 12 103 -3 59 -7 155 -10 213 -2 58 -7 146 -10 195 -3 50 -7 149
-10 220 -3 72 -7 171 -10 220 -3 50 -7 146 -10 215 -3 69 -8 166 -10 215 -3
50 -7 144 -10 210 -3 66 -8 163 -10 215 -10 216 -15 321 -20 428 -5 96 -10
126 -40 204 -59 158 -130 237 -251 279 -70 25 -192 31 -266 13z"/>
<path d="M5817 12144 c-1 -1 -74 -4 -162 -8 -88 -4 -173 -8 -190 -10 -16 -2
-66 -7 -110 -12 -44 -4 -82 -8 -85 -9 -3 0 -32 -5 -65 -9 -32 -4 -68 -10 -79
-12 -11 -2 -38 -6 -61 -10 -22 -3 -58 -9 -80 -14 -22 -5 -56 -12 -75 -15 -57
-10 -267 -63 -383 -97 -118 -35 -142 -53 -152 -121 -5 -29 -2 -38 21 -56 38
-30 69 -36 123 -22 25 6 57 14 71 17 14 3 43 10 65 16 22 6 45 13 50 14 23 6
253 54 285 59 19 3 60 10 90 15 57 10 87 14 275 35 138 15 239 19 475 19 146
0 303 -3 350 -7 47 -4 110 -10 140 -13 30 -2 71 -7 90 -10 19 -2 53 -7 75 -9
22 -3 51 -7 65 -10 14 -2 45 -7 70 -10 88 -12 343 -67 459 -98 144 -40 190
-36 215 17 9 18 22 39 30 45 31 26 0 89 -46 92 -24 2 -24 2 -98 26 -121 39
-369 99 -490 118 -19 3 -57 10 -85 15 -27 5 -72 12 -98 15 -27 4 -56 8 -65 10
-10 1 -51 6 -92 10 -41 4 -88 9 -105 11 -37 4 -424 21 -428 18z"/>
<path d="M14537 12144 c-1 -1 -78 -5 -172 -8 -93 -4 -183 -8 -200 -10 -16 -2
-61 -7 -100 -10 -38 -4 -81 -9 -95 -11 -24 -4 -69 -11 -141 -20 -19 -2 -59 -9
-89 -15 -30 -6 -66 -13 -80 -16 -74 -13 -224 -50 -372 -92 -155 -43 -169 -48
-181 -75 -12 -25 -12 -36 -1 -75 26 -86 54 -89 289 -30 201 50 419 90 615 113
30 4 69 8 85 10 222 27 733 26 970 -1 75 -8 130 -15 165 -20 82 -11 167 -24
195 -29 131 -25 250 -51 361 -80 73 -19 141 -35 153 -35 30 0 78 26 91 49 14
26 2 76 -25 105 -38 41 -289 109 -690 186 -48 9 -268 38 -350 45 -61 5 -425
21 -428 19z"/>
<path d="M4450 11548 c-41 -15 -42 -29 -42 -577 1 -289 1 -555 2 -591 1 -106
38 -134 134 -98 50 18 271 86 307 94 11 2 27 6 37 8 70 17 231 52 285 61 98
17 133 22 198 30 31 3 66 7 77 10 126 24 712 25 839 1 10 -2 45 -7 78 -10 57
-7 75 -9 148 -21 17 -3 46 -8 62 -11 133 -21 454 -103 595 -152 56 -19 104
-19 128 0 9 8 11 23 6 52 -4 23 -7 289 -6 591 0 303 -2 559 -4 570 -12 51 54
49 -1437 50 -763 0 -1396 -3 -1407 -7z"/>
<path d="M13126 11545 c-17 -5 -35 -19 -41 -31 -7 -13 -10 -224 -10 -612 l0
-591 24 -25 c24 -25 75 -36 83 -18 2 5 28 15 58 24 30 9 98 30 150 46 95 30
370 96 445 107 22 3 47 7 55 10 8 2 36 7 62 10 26 3 62 7 80 10 195 28 601 39
803 21 144 -12 271 -28 350 -42 11 -2 45 -8 75 -14 186 -34 375 -82 560 -143
52 -17 101 -31 108 -30 6 0 18 1 26 2 7 0 22 13 32 28 16 26 17 68 18 603 1
316 -3 587 -7 602 -18 56 71 53 -1440 53 -910 0 -1411 -3 -1431 -10z"/>
<path d="M5890 10276 c-83 -21 -119 -52 -156 -130 -58 -126 -59 -228 -2 -310
19 -26 360 -428 393 -462 5 -6 28 -32 50 -59 22 -27 54 -63 70 -80 17 -17 42
-47 57 -66 14 -19 34 -43 44 -54 17 -18 99 -112 161 -185 97 -113 484 -563
512 -596 20 -22 47 -53 60 -70 23 -27 124 -146 146 -170 6 -6 31 -35 56 -65
117 -137 184 -214 189 -219 20 -19 70 -82 70 -88 0 -4 -84 -8 -187 -8 -267 0
-340 -12 -468 -77 -205 -103 -330 -276 -381 -527 -8 -42 -5 -183 5 -217 5 -18
8 -33 6 -33 -2 0 7 -32 20 -71 38 -111 92 -195 214 -335 20 -22 45 -51 56 -65
53 -63 300 -355 305 -359 3 -3 25 -30 50 -60 25 -30 47 -57 50 -60 5 -4 118
-138 186 -220 282 -338 550 -582 854 -779 52 -33 100 -65 107 -71 7 -5 14 -10
17 -10 3 0 29 -14 58 -31 313 -185 795 -358 1155 -415 19 -3 45 -8 57 -10 25
-5 154 -21 251 -31 96 -10 500 -10 609 0 175 16 366 46 521 81 92 22 182 48
340 101 181 60 247 88 445 187 147 73 340 185 405 235 6 5 23 16 38 26 16 10
36 25 45 32 9 8 51 40 93 72 185 141 340 290 541 518 172 195 199 225 289 326
36 41 142 160 234 264 92 105 194 219 225 255 129 145 168 207 209 326 52 156
46 337 -19 507 -67 176 -232 337 -414 403 -88 32 -162 40 -373 39 -101 0 -183
1 -183 3 0 3 106 129 120 142 3 3 28 32 55 65 28 33 59 69 70 80 11 12 38 43
60 70 22 26 45 53 50 59 18 19 378 438 410 477 27 33 173 202 236 274 15 17
75 86 134 155 58 69 128 150 154 180 27 30 104 120 172 200 68 80 126 147 129
150 14 14 179 209 198 235 12 17 33 66 47 109 40 122 25 211 -47 285 -95 97
-262 113 -366 35 -31 -23 -150 -124 -188 -159 -6 -5 -37 -32 -69 -60 -32 -27
-66 -57 -75 -65 -8 -8 -31 -28 -50 -44 -19 -16 -62 -53 -95 -82 -79 -70 -88
-77 -245 -212 -74 -64 -137 -119 -140 -122 -3 -4 -90 -80 -195 -170 -104 -91
-194 -170 -200 -175 -5 -6 -57 -51 -115 -100 -58 -50 -112 -97 -120 -105 -8
-8 -80 -71 -160 -140 -80 -68 -150 -129 -156 -135 -6 -5 -33 -29 -60 -52 -27
-22 -71 -61 -97 -85 l-49 -44 74 -144 c133 -263 236 -523 253 -642 6 -38 15
-85 31 -153 6 -26 6 -507 0 -560 -2 -22 -7 -68 -11 -102 -3 -34 -8 -72 -11
-85 -2 -13 -7 -43 -10 -67 -3 -25 -7 -48 -9 -51 -2 -4 -7 -22 -10 -41 -3 -19
-8 -42 -11 -51 -3 -9 -6 -25 -8 -35 -7 -33 -68 -217 -98 -293 -133 -338 -355
-655 -639 -915 -305 -280 -758 -507 -1157 -580 -15 -3 -38 -7 -52 -10 -14 -3
-45 -8 -70 -11 -25 -3 -53 -8 -62 -9 -77 -15 -343 -21 -477 -11 -391 30 -824
173 -1115 367 -32 21 -60 39 -63 39 -2 0 -30 19 -61 42 -380 277 -675 650
-847 1069 -63 153 -136 420 -150 544 -4 33 -9 63 -11 66 -10 17 -18 246 -18
484 l1 270 37 130 c84 289 164 483 271 659 24 40 45 78 47 83 3 12 -54 63
-562 503 -135 116 -249 217 -255 223 -5 7 -32 30 -58 51 -27 21 -56 46 -65 56
-10 9 -66 59 -127 111 -60 51 -112 96 -115 99 -3 3 -54 48 -115 100 -60 52
-112 97 -115 100 -3 3 -36 32 -75 65 -38 33 -72 62 -75 65 -3 3 -43 39 -90 80
-123 106 -211 184 -224 195 -160 145 -247 182 -366 151z"/>
<path d="M9879 9207 c-69 -18 -139 -87 -159 -158 -6 -19 -10 -104 -10 -189 l0
-155 -138 -53 c-75 -29 -141 -52 -146 -52 -6 0 -56 45 -111 100 -56 55 -118
106 -138 115 -50 20 -133 19 -182 -4 -49 -23 -438 -413 -455 -456 -19 -47 -20
-116 -4 -165 11 -35 37 -69 118 -149 l103 -103 -40 -101 c-21 -56 -45 -123
-53 -148 l-14 -46 -167 0 c-152 0 -172 -2 -210 -21 -67 -34 -117 -97 -130
-161 -3 -14 -5 -152 -5 -306 -1 -307 1 -319 61 -387 59 -67 99 -78 285 -78
l164 0 12 -32 c35 -95 43 -115 52 -132 5 -10 18 -43 28 -73 l17 -53 -97 -98
c-112 -112 -132 -145 -135 -221 -3 -100 3 -109 227 -334 229 -230 254 -247
348 -242 78 4 111 24 223 136 l98 99 31 -16 c26 -14 244 -94 254 -94 2 0 4
-70 4 -156 0 -90 5 -173 12 -195 15 -53 69 -113 124 -140 45 -21 57 -22 335
-22 336 0 350 3 423 84 54 60 60 87 59 285 l-1 142 112 42 c61 24 126 49 144
57 l32 13 103 -101 c117 -115 136 -128 211 -134 100 -9 120 4 345 228 126 126
210 217 222 242 23 49 25 132 4 183 -9 21 -60 82 -116 138 l-101 101 40 109
c22 60 46 126 53 147 l13 37 156 0 c85 0 172 5 193 11 45 12 100 58 135 114
l26 40 0 315 c0 300 -1 317 -21 355 -53 100 -99 117 -318 118 l-170 1 -38 100
c-20 56 -41 108 -46 116 -5 9 -11 29 -15 46 -6 29 0 38 98 137 83 84 107 115
117 149 15 55 13 116 -6 160 -16 40 -416 445 -455 461 -40 16 -123 20 -168 7
-33 -8 -66 -34 -149 -115 -59 -58 -110 -105 -114 -105 -3 0 -31 10 -60 23 -30
13 -93 36 -140 52 l-86 29 -1 165 c0 187 -8 217 -68 277 -64 65 -77 67 -395
68 -158 1 -301 -2 -320 -7z m511 -1142 c65 -17 129 -38 167 -56 24 -10 47 -19
52 -19 5 0 51 -28 102 -61 352 -231 503 -639 383 -1037 -90 -299 -333 -529
-640 -608 -450 -114 -909 116 -1078 540 -15 38 -30 78 -32 90 -36 170 -41 295
-18 419 51 270 204 487 439 625 77 45 222 97 300 107 28 4 52 9 54 11 7 6 242
-4 271 -11z"/>
</g>
</svg>
