<?xml version="1.0" standalone="no"?>
<!DOCTYPE svg PUBLIC "-//W3C//DTD SVG 20010904//EN"
 "http://www.w3.org/TR/2001/REC-SVG-20010904/DTD/svg10.dtd">
<svg version="1.0" xmlns="http://www.w3.org/2000/svg"
 width="816.000000pt" height="816.000000pt" viewBox="0 0 816.000000 816.000000"
 preserveAspectRatio="xMidYMid meet">
<metadata>
Created by potrace 1.11, written by Peter Selinger 2001-2013
</metadata>
<g transform="translate(0.000000,816.000000) scale(0.100000,-0.100000)"
fill="#000000" stroke="none">
<path d="M4147 8104 c-2 -3 -42 -7 -88 -9 -46 -3 -97 -7 -114 -9 -16 -2 -57
-7 -90 -10 -33 -4 -71 -9 -85 -11 -14 -2 -45 -7 -70 -10 -25 -3 -90 -15 -145
-25 -55 -11 -109 -22 -120 -24 -46 -9 -195 -47 -260 -66 -38 -12 -77 -23 -85
-25 -8 -2 -34 -10 -57 -19 -24 -8 -43 -13 -43 -9 0 3 -6 1 -12 -4 -7 -6 -49
-23 -93 -38 -44 -16 -86 -33 -92 -38 -7 -5 -13 -7 -13 -3 0 3 -22 -5 -50 -19
-27 -14 -52 -25 -55 -25 -8 1 -196 -87 -225 -105 -14 -9 -52 -29 -85 -46 -33
-16 -89 -48 -124 -69 -34 -22 -65 -40 -67 -40 -7 0 -99 -65 -102 -72 -2 -4 -8
-8 -12 -8 -9 0 -126 -79 -165 -111 -11 -9 -58 -47 -105 -84 -47 -38 -94 -76
-105 -86 -254 -225 -490 -477 -640 -685 -11 -15 -32 -43 -47 -62 -16 -19 -28
-38 -28 -41 0 -4 -9 -17 -20 -29 -12 -12 -17 -22 -13 -22 4 0 4 -4 -2 -8 -11
-7 -105 -148 -105 -157 0 -2 -20 -38 -45 -78 -25 -41 -45 -79 -45 -84 0 -6 -8
-21 -19 -34 -10 -13 -19 -27 -19 -32 -1 -4 -17 -40 -36 -80 -55 -115 -82 -179
-96 -222 -7 -22 -16 -44 -20 -50 -10 -13 -79 -225 -86 -261 -3 -15 -7 -31 -10
-36 -13 -20 -75 -291 -90 -388 -3 -19 -7 -42 -9 -50 -6 -20 -12 -63 -20 -135
-4 -33 -9 -73 -11 -90 -19 -160 -26 -670 -11 -845 4 -47 9 -110 12 -140 3 -30
7 -68 9 -85 3 -16 8 -52 11 -80 9 -66 12 -85 19 -115 3 -14 8 -41 10 -60 5
-31 17 -96 30 -155 2 -11 9 -40 16 -65 7 -25 14 -54 16 -66 2 -11 18 -68 35
-125 17 -57 32 -108 33 -114 1 -5 5 -15 8 -21 4 -6 9 -22 12 -36 2 -14 11 -40
20 -57 9 -17 17 -34 17 -38 1 -5 5 -18 10 -31 5 -13 9 -25 9 -27 0 -9 95 -227
134 -305 53 -108 133 -252 185 -334 14 -21 30 -47 36 -57 34 -62 200 -288 287
-392 151 -181 374 -401 558 -549 83 -67 214 -163 219 -159 2 1 7 -2 10 -7 3
-6 47 -35 96 -66 50 -31 95 -59 100 -64 24 -20 355 -192 369 -192 3 0 33 -13
68 -29 125 -59 303 -120 563 -195 6 -1 27 -6 48 -11 20 -4 40 -11 43 -16 3 -5
9 -7 14 -4 4 3 37 -1 72 -9 72 -17 110 -25 153 -32 145 -24 208 -34 255 -39
52 -5 81 -9 168 -20 142 -18 653 -25 857 -11 184 12 201 14 320 31 22 3 60 9
85 12 59 7 85 11 85 13 0 1 12 3 28 5 15 2 51 8 80 14 28 6 63 13 77 15 14 3
45 10 70 17 25 6 52 12 60 14 34 7 110 28 187 52 46 13 89 26 95 27 7 2 20 6
28 9 8 3 54 20 102 36 190 66 496 207 661 305 43 25 81 46 84 46 4 0 20 11 37
23 17 13 36 26 41 28 26 10 145 93 145 101 0 4 5 8 10 8 17 0 144 97 310 238
52 44 373 364 395 393 15 21 109 133 116 139 3 3 11 15 17 26 10 18 8 24 -14
40 -14 11 -34 26 -44 34 -10 8 -28 22 -40 30 -12 8 -148 109 -301 223 -303
226 -285 217 -332 159 -83 -101 -246 -263 -421 -417 -6 -5 -34 -28 -61 -50
-28 -21 -52 -42 -55 -45 -3 -3 -27 -22 -55 -41 -27 -18 -52 -36 -55 -39 -10
-10 -79 -60 -83 -60 -2 0 -42 -25 -88 -55 -46 -30 -88 -55 -93 -55 -5 0 -17
-6 -25 -14 -22 -18 -251 -137 -251 -130 0 4 -6 2 -12 -4 -18 -14 -208 -92
-208 -85 0 3 -6 0 -14 -6 -8 -7 -27 -16 -43 -21 -15 -4 -73 -22 -127 -39 -54
-17 -108 -33 -120 -36 -253 -57 -269 -60 -416 -81 -255 -36 -678 -37 -945 -3
-93 11 -154 20 -175 24 -8 2 -39 6 -68 10 -29 4 -55 11 -58 16 -3 5 -9 7 -14
4 -8 -5 -252 54 -305 75 -16 6 -31 11 -32 11 -6 -1 -44 13 -173 61 -170 64
-414 183 -464 227 -10 9 -19 14 -20 13 -2 -7 -66 33 -66 41 0 4 -4 7 -10 7
-15 0 -212 143 -308 224 -70 58 -276 259 -369 358 -106 114 -283 355 -355 483
-88 157 -184 365 -228 495 -17 52 -35 104 -40 115 -12 29 -58 213 -66 260 -3
22 -8 43 -9 46 -2 3 -7 28 -10 55 -4 27 -11 68 -16 92 -5 24 -7 48 -4 53 4 5
3 9 -2 9 -4 0 -8 15 -9 33 0 17 -3 61 -7 97 -6 53 -20 319 -18 355 0 6 2 70 5
143 3 73 8 152 11 175 3 23 8 58 10 77 10 86 15 127 20 150 2 13 7 42 11 65 7
46 12 70 14 70 1 0 3 12 5 26 2 14 9 45 15 70 7 24 14 52 15 61 17 89 112 367
167 488 57 126 151 305 210 399 63 100 174 259 193 276 7 6 29 33 51 60 108
139 409 411 582 528 31 21 65 44 74 52 10 8 34 23 55 35 38 20 58 32 147 85
123 72 286 153 421 207 55 23 241 88 265 93 8 2 44 12 80 23 90 28 293 71 410
88 46 6 63 8 185 21 95 10 531 10 630 -1 44 -4 96 -9 115 -11 19 -1 53 -6 75
-9 22 -4 69 -12 105 -18 36 -6 74 -12 85 -15 11 -2 35 -6 54 -9 19 -3 45 -10
58 -15 14 -5 37 -9 53 -9 16 0 31 -4 34 -9 3 -4 23 -11 43 -14 153 -25 565
-193 778 -317 22 -13 49 -28 60 -34 26 -15 79 -49 85 -56 3 -3 38 -27 79 -54
40 -27 78 -55 85 -60 6 -6 31 -27 56 -46 75 -58 120 -99 255 -235 123 -123
335 -372 335 -394 0 -32 36 -10 240 149 51 40 309 236 336 255 15 11 32 25 38
30 6 6 26 21 44 34 17 12 32 26 32 31 0 12 -156 217 -227 299 -120 137 -268
288 -358 363 -22 18 -46 40 -55 48 -8 8 -44 38 -80 65 -87 68 -100 78 -114 90
-24 23 -227 157 -336 222 -147 88 -480 254 -520 259 -3 0 -22 8 -44 17 -21 9
-41 17 -45 17 -3 0 -35 11 -71 24 -70 27 -285 94 -318 101 -11 2 -67 15 -124
29 -105 25 -157 37 -193 42 -11 2 -31 5 -45 8 -64 14 -134 25 -190 31 -19 2
-55 6 -80 10 -83 11 -127 15 -196 21 -83 7 -691 14 -697 8z"/>
<path d="M4268 6175 c-2 -1 -37 -6 -78 -9 -173 -16 -180 -17 -250 -31 -13 -2
-42 -7 -65 -11 -35 -5 -82 -15 -135 -28 -8 -3 -37 -9 -65 -16 -109 -25 -143
-62 -95 -105 19 -17 26 -18 63 -7 81 23 223 61 252 67 212 42 362 58 565 58
205 1 376 -17 570 -58 14 -2 34 -7 45 -9 47 -10 83 -19 122 -32 23 -7 54 -16
69 -18 15 -3 32 -10 37 -15 14 -14 64 7 70 31 13 50 -25 74 -146 93 -16 3 -33
8 -39 11 -5 4 -27 9 -47 11 -20 3 -41 9 -47 14 -6 5 -13 7 -16 4 -3 -3 -29 0
-59 5 -30 6 -72 13 -94 16 -41 6 -81 11 -150 19 -43 6 -502 15 -507 10z"/>
<path d="M3567 5799 c-20 -16 -21 -27 -21 -375 -1 -357 -1 -359 21 -381 26
-27 37 -28 94 -7 57 20 292 80 344 88 22 4 65 11 95 16 118 21 183 25 390 24
196 -1 280 -6 350 -20 14 -3 39 -7 55 -9 17 -2 62 -11 100 -20 39 -9 86 -20
105 -24 19 -5 77 -22 128 -39 66 -22 99 -29 111 -22 16 8 17 38 17 384 -1 294
-4 378 -14 388 -10 10 -183 13 -884 13 -794 1 -873 -1 -891 -16z"/>
<path d="M4418 5011 c-57 -21 -70 -30 -97 -68 -28 -42 -29 -47 -46 -293 -2
-30 -6 -82 -9 -115 -10 -99 -18 -196 -21 -270 -2 -38 -4 -70 -5 -70 -1 0 -3
-25 -5 -55 -3 -30 -7 -84 -10 -120 -3 -36 -7 -97 -10 -136 l-5 -72 39 9 c89
20 252 28 331 16 19 -3 55 -8 79 -12 24 -3 47 -8 51 -10 12 -7 17 16 14 60 -5
81 -14 274 -19 400 -3 72 -7 168 -10 215 -2 47 -7 144 -10 215 -6 141 -7 148
-37 216 -21 48 -82 98 -123 100 -11 1 -30 3 -42 4 -11 1 -41 -5 -65 -14z"/>
<path d="M2529 4916 c-2 -2 -51 -7 -109 -10 -119 -8 -173 -13 -210 -21 -32 -7
-54 -11 -110 -20 -25 -4 -49 -11 -55 -15 -5 -5 -13 -8 -18 -8 -26 -1 -119 -27
-126 -36 -18 -21 -16 -48 4 -61 17 -11 30 -10 75 2 83 22 93 24 120 28 14 2
25 4 25 5 0 1 11 3 25 5 14 2 39 6 55 9 129 27 477 27 640 1 94 -15 181 -33
235 -49 52 -15 90 -12 90 9 0 7 7 18 15 25 20 16 12 23 -45 39 -25 8 -56 17
-70 22 -80 27 -340 66 -454 68 -37 1 -72 3 -76 6 -4 2 -9 3 -11 1z"/>
<path d="M6177 4903 c-3 -2 -25 -6 -49 -9 -23 -2 -52 -6 -64 -9 -12 -3 -39 -7
-60 -11 -34 -5 -60 -10 -135 -28 -99 -24 -129 -39 -129 -65 1 -40 32 -55 85
-39 17 5 41 12 55 15 50 10 55 11 55 13 0 2 9 3 105 20 103 19 154 22 340 23
193 0 250 -4 390 -29 19 -4 45 -8 57 -10 13 -1 32 -5 42 -9 11 -3 30 -8 43
-11 32 -7 52 -12 58 -14 11 -5 46 3 56 11 15 12 6 47 -15 58 -21 12 -196 58
-245 66 -21 3 -48 8 -60 11 -12 2 -39 7 -61 10 -52 8 -462 14 -468 7z"/>
<path d="M1919 4648 c-16 -6 -19 -17 -20 -65 -2 -251 -1 -342 5 -352 4 -6 3
-11 -1 -11 -12 0 -6 -109 7 -125 9 -11 22 -10 78 6 91 27 105 31 208 53 116
25 181 30 354 30 166 0 252 -7 325 -26 22 -6 49 -11 60 -13 29 -4 72 -15 142
-37 105 -33 99 -49 98 257 -1 195 -4 268 -13 277 -9 9 -154 12 -618 13 -333 0
-614 -3 -625 -7z"/>
<path d="M5764 4650 l-29 -5 -3 -271 c-2 -231 0 -273 13 -284 9 -7 22 -9 32
-5 34 15 201 62 247 69 17 3 45 8 61 12 17 3 41 7 55 8 14 1 30 4 35 7 14 8
378 3 440 -5 28 -4 64 -11 80 -16 17 -5 48 -11 70 -15 22 -3 83 -19 135 -34
81 -25 96 -26 108 -14 12 11 14 62 15 267 0 158 -4 260 -11 272 -10 18 -35 18
-614 19 -332 0 -617 -2 -634 -5z"/>
<path d="M2528 4077 c-32 -12 -62 -74 -61 -123 1 -29 25 -75 58 -110 17 -19
57 -65 145 -169 47 -55 92 -107 100 -116 8 -9 22 -25 30 -35 43 -53 156 -179
162 -182 5 -2 8 -7 8 -12 0 -5 15 -24 33 -43 17 -18 68 -76 112 -128 44 -52
90 -105 102 -119 12 -14 31 -36 42 -49 12 -13 19 -26 17 -29 -3 -2 -49 -6
-103 -7 -119 -4 -134 -7 -186 -39 -74 -44 -116 -91 -146 -166 -16 -41 -18
-187 -2 -203 6 -6 11 -19 11 -29 0 -10 5 -18 10 -18 6 0 10 -6 10 -13 0 -7 10
-23 23 -37 12 -14 38 -45 58 -70 21 -25 50 -59 65 -77 16 -18 39 -45 51 -60
12 -15 30 -37 40 -48 10 -11 40 -47 68 -80 27 -33 62 -72 77 -87 15 -16 25
-28 21 -28 -3 0 36 -40 87 -90 95 -91 230 -193 319 -240 28 -15 56 -31 63 -37
18 -14 183 -79 259 -102 143 -44 262 -62 424 -65 167 -4 295 12 475 58 87 23
352 141 406 181 10 8 55 41 99 74 109 80 200 170 365 361 36 41 70 80 75 86 6
6 37 41 70 79 33 37 69 77 80 89 137 147 144 328 18 467 -32 35 -97 75 -143
87 -8 2 -60 5 -115 7 -55 2 -102 4 -104 4 -3 1 4 9 15 19 10 11 37 41 59 68
22 27 55 64 73 83 17 19 32 37 32 40 0 3 19 27 43 52 23 25 53 59 67 75 14 16
50 59 80 94 30 36 60 70 65 76 18 21 94 109 112 130 10 12 39 46 64 75 162
189 196 230 197 241 1 7 5 29 8 49 11 69 -43 129 -118 129 -33 0 -75 -21 -113
-56 -11 -11 -51 -46 -90 -79 -38 -33 -72 -63 -75 -66 -3 -3 -43 -38 -90 -78
-47 -40 -110 -95 -140 -122 -30 -26 -65 -56 -76 -66 -12 -10 -45 -39 -75 -65
-30 -26 -63 -55 -75 -65 -49 -42 -160 -140 -191 -169 l-34 -31 35 -64 c35 -64
99 -221 112 -275 14 -59 13 -347 -2 -419 -8 -38 -17 -86 -21 -105 -3 -19 -9
-39 -13 -45 -4 -5 -13 -28 -20 -50 -58 -182 -227 -395 -411 -517 -79 -53 -203
-116 -241 -123 -9 -2 -27 -9 -40 -16 -13 -7 -25 -11 -28 -10 -3 1 -25 -3 -50
-8 -88 -20 -126 -24 -230 -25 -145 0 -213 9 -343 50 -239 76 -460 247 -587
455 -37 62 -112 225 -112 246 0 4 -5 19 -10 33 -27 70 -41 201 -41 370 0 113
3 134 32 225 32 98 86 221 114 260 13 17 13 21 -3 35 -9 8 -43 38 -74 65 -32
28 -78 68 -103 90 -25 22 -55 48 -67 58 -58 50 -121 104 -144 126 -15 13 -51
44 -81 70 -30 25 -59 51 -65 56 -6 6 -47 42 -91 79 -44 38 -84 74 -90 80 -14
15 -122 106 -159 134 -32 24 -82 28 -128 9z"/>
<path d="M4335 3620 c-4 -6 -10 -8 -15 -5 -5 3 -24 -10 -43 -29 -33 -33 -34
-37 -34 -111 0 -86 1 -83 -79 -111 l-53 -18 -36 37 c-45 47 -71 61 -115 63
-32 2 -44 -8 -136 -100 -131 -130 -135 -154 -48 -246 l43 -45 -23 -65 -24 -65
-83 -1 c-53 0 -84 -5 -87 -12 -2 -7 -10 -12 -17 -12 -12 0 -23 -16 -32 -50 -3
-8 -6 -69 -7 -135 -2 -122 12 -185 40 -185 7 0 14 -5 16 -11 2 -6 40 -12 86
-13 46 -2 85 -5 86 -7 2 -2 13 -30 25 -62 l21 -59 -49 -54 c-53 -58 -63 -84
-47 -124 12 -32 162 -187 200 -207 43 -23 86 -10 139 43 l47 46 52 -17 c76
-25 80 -31 82 -120 1 -73 3 -78 34 -106 32 -29 32 -29 168 -29 192 0 215 16
215 149 l0 78 65 22 64 23 56 -52 c87 -78 115 -70 259 78 41 42 76 83 76 89 1
7 2 20 2 28 0 43 -7 56 -51 99 l-49 48 21 62 c11 33 21 62 22 64 1 2 38 5 81
6 134 5 146 22 148 206 3 191 -11 212 -140 215 -39 0 -75 4 -82 8 -11 7 -43
95 -43 119 0 7 20 33 45 57 25 24 46 50 46 58 1 7 2 19 3 26 5 32 -23 72 -107
156 -123 122 -159 128 -246 37 -19 -20 -39 -36 -46 -36 -6 0 -36 10 -67 23
l-55 22 0 67 c0 135 -31 160 -192 157 -60 -1 -114 1 -119 5 -6 3 -13 2 -17 -4z
m250 -521 c22 -7 48 -20 58 -28 9 -8 17 -11 17 -7 0 9 47 -24 85 -61 253 -242
93 -673 -256 -689 -365 -17 -559 403 -314 677 49 55 130 102 205 118 50 11
159 6 205 -10z"/>
</g>
</svg>
